<svg xmlns="http://www.w3.org/2000/svg" xmlns:xlink="http://www.w3.org/1999/xlink" width="500" zoomAndPan="magnify" viewBox="0 0 375 374.999991" height="500" preserveAspectRatio="xMidYMid meet" version="1.0"><defs><g/><clipPath id="c2be7bbb97"><path d="M 114.738281 63.789062 L 260.121094 63.789062 L 260.121094 209.171875 L 114.738281 209.171875 Z M 114.738281 63.789062 " clip-rule="nonzero"/></clipPath><clipPath id="5148b2ca62"><path d="M 187.496094 209.304688 C 147.40625 209.304688 114.738281 176.636719 114.738281 136.546875 C 114.738281 96.457031 147.40625 63.789062 187.496094 63.789062 C 227.585938 63.789062 260.253906 96.457031 260.253906 136.546875 C 260.253906 155.992188 252.75 174.246094 239.015625 187.980469 C 225.199219 201.710938 206.945312 209.304688 187.496094 209.304688 Z M 187.496094 194.804688 C 185.023438 194.804688 182.976562 192.757812 182.976562 190.28125 C 182.976562 187.808594 185.023438 185.761719 187.496094 185.761719 C 214.621094 185.761719 236.710938 163.671875 236.710938 136.546875 C 236.710938 124.777344 232.449219 113.429688 224.855469 104.558594 C 223.152344 102.683594 223.40625 99.785156 225.28125 98.164062 C 227.246094 96.457031 230.058594 96.714844 231.765625 98.589844 C 240.808594 109.082031 245.839844 122.558594 245.839844 136.546875 C 245.839844 152.15625 239.785156 166.742188 228.78125 177.746094 C 217.691406 188.746094 203.105469 194.804688 187.496094 194.804688 Z M 173.59375 193.011719 C 173.253906 193.011719 172.824219 193.011719 172.398438 192.84375 C 166.003906 191.136719 160.117188 188.40625 154.914062 184.824219 C 152.78125 183.375 152.269531 180.558594 153.71875 178.511719 C 155.085938 176.464844 157.898438 175.867188 160.03125 177.316406 C 164.464844 180.304688 169.414062 182.605469 174.789062 184.140625 C 177.175781 184.738281 178.625 187.296875 177.945312 189.6875 C 177.433594 191.734375 175.640625 193.011719 173.59375 193.011719 Z M 147.324219 176.636719 C 146.042969 176.636719 144.761719 176.125 143.910156 175.101562 C 134.527344 164.523438 129.324219 150.789062 129.324219 136.546875 C 129.324219 121.023438 135.378906 106.351562 146.382812 95.433594 C 157.300781 84.429688 171.972656 78.375 187.496094 78.375 C 193.382812 78.375 199.183594 79.226562 204.726562 80.847656 C 207.113281 81.617188 208.480469 84.175781 207.710938 86.5625 C 207.03125 88.953125 204.46875 90.316406 202.082031 89.546875 C 197.390625 88.183594 192.527344 87.5 187.496094 87.5 C 160.457031 87.5 138.453125 109.507812 138.453125 136.546875 C 138.453125 148.660156 142.800781 160.171875 150.648438 169.128906 C 152.355469 171.007812 152.183594 173.90625 150.308594 175.527344 C 149.453125 176.292969 148.347656 176.636719 147.324219 176.636719 Z M 170.011719 155.738281 C 168.902344 155.738281 167.707031 155.3125 166.855469 154.457031 L 152.183594 139.789062 L 152.011719 139.617188 L 151.929688 139.53125 L 151.757812 139.359375 L 151.671875 139.277344 L 151.585938 139.191406 L 151.585938 139.105469 L 151.5 138.933594 L 151.417969 138.847656 L 151.417969 138.765625 L 151.246094 138.59375 L 151.246094 138.507812 L 151.160156 138.335938 L 151.160156 138.253906 L 151.074219 138.167969 L 151.074219 137.996094 L 150.988281 137.824219 L 150.988281 137.65625 L 150.90625 137.570312 L 150.90625 137.230469 L 150.820312 137.144531 L 150.820312 136.035156 L 150.90625 135.949219 L 150.90625 135.609375 L 150.988281 135.4375 L 150.988281 135.265625 L 151.074219 135.183594 L 151.074219 134.925781 L 151.160156 134.839844 L 151.160156 134.753906 L 151.246094 134.671875 L 151.246094 134.585938 L 151.332031 134.414062 L 151.417969 134.328125 L 151.417969 134.242188 L 151.5 134.15625 L 151.585938 134.074219 L 151.585938 133.988281 L 151.84375 133.730469 L 151.929688 133.5625 L 152.011719 133.476562 L 152.097656 133.390625 L 152.183594 133.390625 L 152.183594 133.304688 L 166.855469 118.71875 C 168.5625 116.929688 171.460938 116.929688 173.253906 118.71875 C 175.042969 120.425781 175.042969 123.324219 173.253906 125.117188 L 161.824219 136.546875 L 173.253906 147.976562 C 175.042969 149.765625 175.042969 152.667969 173.253906 154.457031 C 172.398438 155.3125 171.207031 155.738281 170.011719 155.738281 Z M 179.222656 172.199219 C 178.882812 172.199219 178.457031 172.199219 178.113281 172.113281 C 175.640625 171.433594 174.191406 168.960938 174.871094 166.484375 L 191.503906 104.304688 C 192.101562 101.917969 194.578125 100.464844 197.050781 101.0625 C 199.523438 101.746094 200.972656 104.21875 200.292969 106.691406 L 183.660156 168.875 C 183.148438 170.921875 181.269531 172.199219 179.222656 172.199219 Z M 205.066406 155.738281 C 203.875 155.738281 202.765625 155.3125 201.828125 154.457031 C 200.121094 152.667969 200.121094 149.765625 201.828125 147.976562 L 213.339844 136.546875 L 201.828125 125.117188 C 200.121094 123.324219 200.121094 120.425781 201.828125 118.71875 C 203.617188 116.929688 206.519531 116.929688 208.308594 118.71875 L 222.980469 133.390625 C 224.6875 135.097656 224.6875 137.996094 222.980469 139.789062 L 222.894531 139.871094 L 208.308594 154.457031 C 207.371094 155.3125 206.261719 155.738281 205.066406 155.738281 Z M 205.066406 155.738281 " clip-rule="evenodd"/></clipPath><clipPath id="396a223596"><path d="M 151 142 L 256 142 L 256 205.863281 L 151 205.863281 Z M 151 142 " clip-rule="nonzero"/></clipPath><clipPath id="26dc136e77"><path d="M 72.429688 77 L 302.269531 77 L 302.269531 204 L 72.429688 204 Z M 72.429688 77 " clip-rule="nonzero"/></clipPath></defs><g clip-path="url(#c2be7bbb97)"><g clip-path="url(#5148b2ca62)"><path fill="#f1f1f1" d="M 114.738281 63.789062 L 114.738281 209.171875 L 260.121094 209.171875 L 260.121094 63.789062 Z M 114.738281 63.789062 " fill-opacity="1" fill-rule="nonzero"/></g></g><path fill="#f1f1f1" d="M 138.414062 179.472656 C 128.8125 168.199219 122.96875 153.617188 122.96875 137.671875 C 122.96875 102.089844 151.914062 73.144531 187.496094 73.144531 C 218.058594 73.144531 243.679688 94.539062 250.296875 123.125 C 251.394531 122.386719 252.472656 121.667969 253.515625 120.949219 C 246.035156 91.429688 219.300781 69.476562 187.496094 69.476562 C 149.882812 69.476562 119.300781 100.078125 119.300781 137.671875 C 119.300781 154.011719 125.089844 169.027344 134.710938 180.785156 C 135.933594 180.371094 137.171875 179.921875 138.414062 179.472656 " fill-opacity="1" fill-rule="nonzero"/><g clip-path="url(#396a223596)"><path fill="#f1f1f1" d="M 187.496094 202.195312 C 175.808594 202.195312 164.878906 199.03125 155.402344 193.585938 C 153.949219 194.160156 152.527344 194.699219 151.089844 195.238281 C 161.625 201.925781 174.101562 205.863281 187.496094 205.863281 C 223.398438 205.863281 252.847656 177.941406 255.4375 142.6875 C 254.144531 143.511719 252.867188 144.339844 251.535156 145.167969 C 247.816406 177.222656 220.523438 202.195312 187.496094 202.195312 " fill-opacity="1" fill-rule="nonzero"/></g><g clip-path="url(#26dc136e77)"><path fill="#f1f1f1" d="M 301.714844 83.429688 C 296.683594 73.324219 271.421875 78.375 251.140625 84.378906 C 249.9375 84.742188 249.253906 86 249.613281 87.183594 C 249.972656 88.390625 251.214844 89.074219 252.417969 88.714844 C 282.570312 79.761719 295.640625 81.359375 297.6875 85.460938 C 299.8125 89.667969 292.925781 101.425781 266.566406 120.714844 C 248.335938 134.109375 223.992188 148.621094 198.03125 161.601562 C 172.949219 174.148438 148.535156 184.289062 127.445312 190.941406 C 93.953125 201.566406 79.515625 200.164062 77.304688 195.742188 C 75.144531 191.425781 82.335938 179.34375 109.773438 159.496094 C 110.78125 158.777344 111.015625 157.355469 110.277344 156.351562 C 109.539062 155.34375 108.136719 155.109375 107.128906 155.847656 C 88.753906 169.132812 67.972656 187.203125 73.277344 197.757812 C 75.363281 201.945312 80.84375 203.582031 88.089844 203.582031 C 99.453125 203.582031 115.148438 199.570312 128.8125 195.238281 C 150.117188 188.53125 174.75 178.285156 200.046875 165.644531 C 226.222656 152.558594 250.800781 137.886719 269.246094 124.367188 C 286.917969 111.421875 306.929688 93.800781 301.714844 83.429688 " fill-opacity="1" fill-rule="nonzero"/></g><g fill="#f1f1f1" fill-opacity="1"><g transform="translate(48.635802, 273.85312)"><g><path d="M 6.328125 -18.34375 L 6.328125 -23.65625 L 32.640625 -36.265625 L 32.640625 -28.765625 L 15.25 -20.984375 L 32.640625 -13.109375 L 32.640625 -5.59375 Z M 6.328125 -18.34375 "/></g></g></g><g fill="#f1f1f1" fill-opacity="1"><g transform="translate(84.451906, 273.85312)"><g><path d="M 7.4375 0 L -0.328125 0 L 17.984375 -48.453125 L 25.703125 -48.453125 Z M 7.4375 0 "/></g></g></g><g fill="#f1f1f1" fill-opacity="1"><g transform="translate(107.520473, 273.85312)"><g><path d="M 27.703125 -28.65625 L 17.984375 -28.65625 L 14.421875 -13.015625 C 14.140625 -11.765625 14 -10.722656 14 -9.890625 C 14 -7.472656 15.363281 -6.265625 18.09375 -6.265625 C 19.289062 -6.265625 21.265625 -6.832031 24.015625 -7.96875 L 24.015625 -0.5625 C 21.640625 0.25 18.410156 0.65625 14.328125 0.65625 C 11.648438 0.65625 9.5 -0.175781 7.875 -1.84375 C 6.25 -3.507812 5.4375 -5.6875 5.4375 -8.375 C 5.4375 -9.25 5.535156 -10.113281 5.734375 -10.96875 L 9.71875 -28.65625 L 5.640625 -28.65625 L 7.046875 -35.28125 L 11.140625 -35.28125 L 12.515625 -42.5 L 21.9375 -45.921875 L 19.46875 -35.28125 L 29.125 -35.28125 Z M 27.703125 -28.65625 "/></g></g></g><g fill="#f1f1f1" fill-opacity="1"><g transform="translate(133.355949, 273.85312)"><g><path d="M 32.546875 -12.65625 C 32.390625 -11.84375 32.3125 -10.941406 32.3125 -9.953125 C 32.3125 -5.117188 32.6875 -1.800781 33.4375 0 L 28.296875 0 C 26.765625 0 25.625 -1.175781 24.875 -3.53125 C 22.0625 -0.738281 18.554688 0.65625 14.359375 0.65625 C 10.535156 0.65625 7.578125 -0.414062 5.484375 -2.5625 C 3.390625 -4.71875 2.34375 -7.71875 2.34375 -11.5625 C 2.34375 -18.257812 4.367188 -23.992188 8.421875 -28.765625 C 12.472656 -33.546875 17.582031 -35.9375 23.75 -35.9375 C 29.707031 -35.9375 34.003906 -35.390625 36.640625 -34.296875 Z M 23.03125 -29.21875 C 19.34375 -29.21875 16.398438 -27.453125 14.203125 -23.921875 C 12.003906 -20.398438 10.90625 -16.347656 10.90625 -11.765625 C 10.90625 -7.960938 12.769531 -6.0625 16.5 -6.0625 C 18.875 -6.0625 20.941406 -7.519531 22.703125 -10.4375 C 24.472656 -13.363281 26.050781 -19.40625 27.4375 -28.5625 C 25.882812 -29 24.414062 -29.21875 23.03125 -29.21875 Z M 23.03125 -29.21875 "/></g></g></g><g fill="#f1f1f1" fill-opacity="1"><g transform="translate(169.633203, 273.85312)"><g><path d="M 30.53125 -26.546875 C 28.226562 -28.242188 25.90625 -29.09375 23.5625 -29.09375 C 19.78125 -29.09375 16.738281 -27.679688 14.4375 -24.859375 C 12.144531 -22.035156 11 -18.503906 11 -14.265625 C 11 -12.066406 11.644531 -10.1875 12.9375 -8.625 C 14.238281 -7.070312 15.910156 -6.296875 17.953125 -6.296875 C 20.898438 -6.296875 24.359375 -7.546875 28.328125 -10.046875 L 27.34375 -1.453125 C 23.976562 -0.046875 20.519531 0.65625 16.96875 0.65625 C 12.507812 0.65625 8.976562 -0.578125 6.375 -3.046875 C 3.769531 -5.515625 2.46875 -8.914062 2.46875 -13.25 C 2.46875 -19.8125 4.367188 -25.234375 8.171875 -29.515625 C 11.972656 -33.796875 16.945312 -35.9375 23.09375 -35.9375 C 26.601562 -35.9375 29.644531 -35.210938 32.21875 -33.765625 Z M 30.53125 -26.546875 "/></g></g></g><g fill="#f1f1f1" fill-opacity="1"><g transform="translate(199.157887, 273.85312)"><g><path d="M 31.203125 0 L 22.671875 0 L 26.515625 -20.5625 C 26.828125 -22.207031 26.984375 -23.585938 26.984375 -24.703125 C 26.984375 -27.628906 25.257812 -29.09375 21.8125 -29.09375 C 18.863281 -29.09375 16.21875 -27.847656 13.875 -25.359375 L 9.15625 0 L 0.890625 0 L 5.859375 -26.453125 C 5.953125 -26.910156 6 -27.546875 6 -28.359375 C 6 -30.316406 5.679688 -32.40625 5.046875 -34.625 L 13.109375 -36.109375 L 13.875 -32.15625 C 16.769531 -34.675781 20.40625 -35.9375 24.78125 -35.9375 C 32.019531 -35.9375 35.640625 -32.546875 35.640625 -25.765625 C 35.640625 -24.554688 35.488281 -23.128906 35.1875 -21.484375 Z M 31.203125 0 "/></g></g></g><g fill="#f1f1f1" fill-opacity="1"><g transform="translate(233.359962, 273.85312)"><g><path d="M 10.640625 -46.609375 C 10.640625 -48.085938 11.160156 -49.3125 12.203125 -50.28125 C 13.242188 -51.257812 14.515625 -51.75 16.015625 -51.75 C 17.484375 -51.75 18.742188 -51.257812 19.796875 -50.28125 C 20.847656 -49.3125 21.375 -48.085938 21.375 -46.609375 C 21.375 -45.160156 20.847656 -43.941406 19.796875 -42.953125 C 18.742188 -41.960938 17.484375 -41.46875 16.015625 -41.46875 C 14.535156 -41.46875 13.269531 -41.957031 12.21875 -42.9375 C 11.164062 -43.914062 10.640625 -45.140625 10.640625 -46.609375 Z M 13.078125 0 L 4.71875 0 L 10.046875 -28.65625 L 5.53125 -28.65625 L 6.921875 -35.28125 L 19.671875 -35.28125 Z M 13.078125 0 "/></g></g></g><g fill="#f1f1f1" fill-opacity="1"><g transform="translate(251.685261, 273.85312)"><g><path d="M 24.875 -17.71875 L 35.125 0 L 25.0625 0 L 19.265625 -10.96875 L 9.890625 0 L -0.265625 0 L 15.09375 -18.421875 L 5.734375 -35.28125 L 15.359375 -35.28125 L 20.921875 -24.578125 L 29.421875 -35.28125 L 39.796875 -35.28125 Z M 24.875 -17.71875 "/></g></g></g><g fill="#f1f1f1" fill-opacity="1"><g transform="translate(286.809636, 273.85312)"><g><path d="M 8.734375 -5.59375 L 8.734375 -13.109375 L 26.09375 -20.984375 L 8.734375 -28.765625 L 8.734375 -36.265625 L 35.046875 -23.65625 L 35.046875 -18.34375 Z M 8.734375 -5.59375 "/></g></g></g><g fill="#f1f1f1" fill-opacity="1"><g transform="translate(68.398553, 305.419864)"><g><path d="M 8.46875 -1.609375 L 8.5625 -1.34375 C 8.664062 -1.113281 8.707031 -0.953125 8.6875 -0.859375 C 8.675781 -0.773438 8.632812 -0.710938 8.5625 -0.671875 C 8.09375 -0.398438 7.578125 -0.1875 7.015625 -0.03125 C 6.460938 0.113281 5.882812 0.1875 5.28125 0.1875 C 4.3125 0.1875 3.5 -0.0351562 2.84375 -0.484375 C 2.1875 -0.941406 1.691406 -1.5625 1.359375 -2.34375 C 1.035156 -3.125 0.875 -3.988281 0.875 -4.9375 C 0.875 -6.125 1.082031 -7.117188 1.5 -7.921875 C 1.914062 -8.722656 2.484375 -9.332031 3.203125 -9.75 C 3.921875 -10.164062 4.722656 -10.375 5.609375 -10.375 C 6.210938 -10.375 6.78125 -10.28125 7.3125 -10.09375 C 7.851562 -9.914062 8.320312 -9.675781 8.71875 -9.375 C 8.800781 -9.320312 8.835938 -9.238281 8.828125 -9.125 C 8.816406 -9.019531 8.742188 -8.804688 8.609375 -8.484375 C 8.460938 -8.171875 8.335938 -7.992188 8.234375 -7.953125 C 8.128906 -7.921875 8.046875 -7.929688 7.984375 -7.984375 C 7.628906 -8.234375 7.257812 -8.429688 6.875 -8.578125 C 6.488281 -8.722656 6.101562 -8.796875 5.71875 -8.796875 C 4.8125 -8.796875 4.078125 -8.46875 3.515625 -7.8125 C 2.960938 -7.164062 2.6875 -6.25 2.6875 -5.0625 C 2.6875 -4.4375 2.773438 -3.84375 2.953125 -3.28125 C 3.140625 -2.726562 3.441406 -2.273438 3.859375 -1.921875 C 4.273438 -1.566406 4.828125 -1.390625 5.515625 -1.390625 C 5.929688 -1.390625 6.347656 -1.441406 6.765625 -1.546875 C 7.191406 -1.660156 7.59375 -1.804688 7.96875 -1.984375 C 8.039062 -2.023438 8.125 -2.019531 8.21875 -1.96875 C 8.3125 -1.925781 8.394531 -1.804688 8.46875 -1.609375 Z M 8.46875 -1.609375 "/></g></g></g><g fill="#f1f1f1" fill-opacity="1"><g transform="translate(79.72538, 305.419864)"><g><path d="M 2.234375 -10.1875 L 2.328125 -10.1875 C 2.679688 -10.1875 2.898438 -10.171875 2.984375 -10.140625 C 3.078125 -10.109375 3.125 -10.046875 3.125 -9.953125 L 3.171875 -7.96875 C 3.535156 -8.78125 3.960938 -9.367188 4.453125 -9.734375 C 4.953125 -10.109375 5.460938 -10.296875 5.984375 -10.296875 C 6.066406 -10.296875 6.140625 -10.289062 6.203125 -10.28125 C 6.273438 -10.28125 6.335938 -10.273438 6.390625 -10.265625 C 6.472656 -10.253906 6.523438 -10.210938 6.546875 -10.140625 C 6.566406 -10.078125 6.578125 -9.9375 6.578125 -9.71875 L 6.578125 -9.4375 C 6.578125 -9.15625 6.566406 -8.960938 6.546875 -8.859375 C 6.523438 -8.765625 6.46875 -8.71875 6.375 -8.71875 C 5.6875 -8.71875 5.144531 -8.535156 4.75 -8.171875 C 4.363281 -7.816406 4.03125 -7.414062 3.75 -6.96875 C 3.476562 -6.519531 3.320312 -5.96875 3.28125 -5.3125 C 3.269531 -5.039062 3.253906 -4.632812 3.234375 -4.09375 C 3.222656 -3.5625 3.21875 -3.015625 3.21875 -2.453125 L 3.21875 -0.234375 C 3.21875 -0.171875 3.179688 -0.113281 3.109375 -0.0625 C 3.046875 -0.0195312 2.820312 0 2.4375 0 L 2.3125 0 C 1.925781 0 1.691406 -0.015625 1.609375 -0.046875 C 1.523438 -0.0859375 1.484375 -0.148438 1.484375 -0.234375 L 1.484375 -6.8125 C 1.484375 -7.46875 1.476562 -8.09375 1.46875 -8.6875 C 1.457031 -9.289062 1.453125 -9.710938 1.453125 -9.953125 C 1.453125 -10.035156 1.492188 -10.09375 1.578125 -10.125 C 1.660156 -10.164062 1.878906 -10.1875 2.234375 -10.1875 Z M 2.234375 -10.1875 "/></g></g></g><g fill="#f1f1f1" fill-opacity="1"><g transform="translate(88.582505, 305.419864)"><g><path d="M 8.703125 -10.1875 L 8.734375 -10.1875 C 9.109375 -10.1875 9.328125 -10.164062 9.390625 -10.125 C 9.460938 -10.09375 9.5 -10.035156 9.5 -9.953125 C 9.5 -9.722656 9.488281 -9.332031 9.46875 -8.78125 C 9.457031 -8.226562 9.453125 -7.644531 9.453125 -7.03125 L 9.453125 -4.328125 C 9.453125 -3.429688 9.46875 -2.65625 9.5 -2 C 9.53125 -1.34375 9.5625 -0.753906 9.59375 -0.234375 C 9.59375 -0.148438 9.550781 -0.0859375 9.46875 -0.046875 C 9.382812 -0.015625 9.191406 0 8.890625 0 L 8.8125 0 C 8.519531 0 8.328125 -0.015625 8.234375 -0.046875 C 8.148438 -0.078125 8.097656 -0.140625 8.078125 -0.234375 L 7.96875 -1.125 C 7.65625 -0.75 7.238281 -0.4375 6.71875 -0.1875 C 6.195312 0.0625 5.625 0.1875 5 0.1875 C 4.0625 0.1875 3.285156 -0.046875 2.671875 -0.515625 C 2.054688 -0.984375 1.601562 -1.601562 1.3125 -2.375 C 1.019531 -3.144531 0.875 -3.992188 0.875 -4.921875 C 0.875 -6.023438 1.066406 -6.984375 1.453125 -7.796875 C 1.835938 -8.617188 2.363281 -9.253906 3.03125 -9.703125 C 3.695312 -10.148438 4.457031 -10.375 5.3125 -10.375 C 5.882812 -10.375 6.390625 -10.253906 6.828125 -10.015625 C 7.273438 -9.785156 7.632812 -9.492188 7.90625 -9.140625 L 8.015625 -9.953125 C 8.023438 -10.066406 8.070312 -10.132812 8.15625 -10.15625 C 8.238281 -10.175781 8.421875 -10.1875 8.703125 -10.1875 Z M 7.71875 -4.765625 L 7.71875 -7.5 C 7.5 -7.851562 7.1875 -8.160156 6.78125 -8.421875 C 6.375 -8.679688 5.945312 -8.8125 5.5 -8.8125 C 4.613281 -8.8125 3.921875 -8.46875 3.421875 -7.78125 C 2.929688 -7.09375 2.6875 -6.171875 2.6875 -5.015625 C 2.6875 -4.410156 2.765625 -3.828125 2.921875 -3.265625 C 3.085938 -2.710938 3.363281 -2.253906 3.75 -1.890625 C 4.132812 -1.523438 4.65625 -1.34375 5.3125 -1.34375 C 5.632812 -1.34375 5.96875 -1.394531 6.3125 -1.5 C 6.664062 -1.613281 6.972656 -1.816406 7.234375 -2.109375 C 7.378906 -2.253906 7.484375 -2.421875 7.546875 -2.609375 C 7.609375 -2.804688 7.648438 -3.078125 7.671875 -3.421875 C 7.703125 -3.765625 7.71875 -4.210938 7.71875 -4.765625 Z M 7.71875 -4.765625 "/></g></g></g><g fill="#f1f1f1" fill-opacity="1"><g transform="translate(101.452895, 305.419864)"><g><path d="M 0.75 -10.1875 L 1.96875 -10.1875 L 1.96875 -10.65625 C 1.96875 -12.019531 2.253906 -13.0625 2.828125 -13.78125 C 3.410156 -14.5 4.296875 -14.859375 5.484375 -14.859375 C 6.160156 -14.859375 6.804688 -14.71875 7.421875 -14.4375 C 7.492188 -14.40625 7.53125 -14.347656 7.53125 -14.265625 C 7.53125 -14.179688 7.492188 -14.015625 7.421875 -13.765625 L 7.40625 -13.6875 C 7.351562 -13.4375 7.300781 -13.269531 7.25 -13.1875 C 7.195312 -13.113281 7.132812 -13.09375 7.0625 -13.125 C 6.820312 -13.207031 6.570312 -13.273438 6.3125 -13.328125 C 6.050781 -13.378906 5.789062 -13.40625 5.53125 -13.40625 C 4.800781 -13.40625 4.3125 -13.164062 4.0625 -12.6875 C 3.820312 -12.207031 3.703125 -11.535156 3.703125 -10.671875 L 3.703125 -10.1875 L 5.9375 -10.1875 C 6.007812 -10.1875 6.054688 -10.144531 6.078125 -10.0625 C 6.097656 -9.988281 6.109375 -9.828125 6.109375 -9.578125 L 6.109375 -9.421875 C 6.109375 -9.171875 6.097656 -9.003906 6.078125 -8.921875 C 6.054688 -8.847656 6.007812 -8.8125 5.9375 -8.8125 L 3.703125 -8.8125 L 3.703125 -0.234375 C 3.703125 -0.171875 3.664062 -0.113281 3.59375 -0.0625 C 3.53125 -0.0195312 3.300781 0 2.90625 0 L 2.796875 0 C 2.410156 0 2.175781 -0.015625 2.09375 -0.046875 C 2.007812 -0.0859375 1.96875 -0.148438 1.96875 -0.234375 L 1.96875 -8.8125 L 0.75 -8.8125 C 0.6875 -8.8125 0.640625 -8.847656 0.609375 -8.921875 C 0.585938 -9.003906 0.578125 -9.171875 0.578125 -9.421875 L 0.578125 -9.578125 C 0.578125 -9.828125 0.585938 -9.988281 0.609375 -10.0625 C 0.640625 -10.144531 0.6875 -10.1875 0.75 -10.1875 Z M 0.75 -10.1875 "/></g></g></g><g fill="#f1f1f1" fill-opacity="1"><g transform="translate(109.808364, 305.419864)"><g><path d="M 2.703125 -13.046875 L 2.8125 -13.046875 C 3.195312 -13.046875 3.425781 -13.019531 3.5 -12.96875 C 3.570312 -12.925781 3.609375 -12.875 3.609375 -12.8125 L 3.609375 -10.1875 L 6.046875 -10.1875 C 6.109375 -10.1875 6.148438 -10.148438 6.171875 -10.078125 C 6.203125 -10.003906 6.21875 -9.84375 6.21875 -9.59375 L 6.21875 -9.4375 C 6.21875 -9.175781 6.203125 -9.003906 6.171875 -8.921875 C 6.148438 -8.847656 6.109375 -8.8125 6.046875 -8.8125 L 3.609375 -8.8125 L 3.609375 -3.125 C 3.609375 -2.757812 3.625 -2.457031 3.65625 -2.21875 C 3.695312 -1.976562 3.785156 -1.785156 3.921875 -1.640625 C 4.140625 -1.410156 4.46875 -1.296875 4.90625 -1.296875 C 5.125 -1.296875 5.347656 -1.320312 5.578125 -1.375 C 5.804688 -1.4375 6.019531 -1.492188 6.21875 -1.546875 C 6.320312 -1.566406 6.390625 -1.550781 6.421875 -1.5 C 6.460938 -1.445312 6.507812 -1.332031 6.5625 -1.15625 L 6.625 -0.90625 C 6.675781 -0.695312 6.695312 -0.550781 6.6875 -0.46875 C 6.675781 -0.394531 6.632812 -0.335938 6.5625 -0.296875 C 6.3125 -0.140625 6 -0.0195312 5.625 0.0625 C 5.257812 0.144531 4.894531 0.1875 4.53125 0.1875 C 3.695312 0.1875 3.054688 -0.0195312 2.609375 -0.4375 C 2.328125 -0.695312 2.132812 -1.023438 2.03125 -1.421875 C 1.925781 -1.828125 1.875 -2.347656 1.875 -2.984375 L 1.875 -8.8125 L 0.65625 -8.8125 C 0.59375 -8.8125 0.546875 -8.847656 0.515625 -8.921875 C 0.492188 -9.003906 0.484375 -9.175781 0.484375 -9.4375 L 0.484375 -9.59375 C 0.484375 -9.84375 0.492188 -10.003906 0.515625 -10.078125 C 0.546875 -10.148438 0.59375 -10.1875 0.65625 -10.1875 L 1.875 -10.1875 L 1.875 -12.8125 C 1.875 -12.882812 1.914062 -12.941406 2 -12.984375 C 2.082031 -13.023438 2.316406 -13.046875 2.703125 -13.046875 Z M 2.703125 -13.046875 "/></g></g></g><g fill="#f1f1f1" fill-opacity="1"><g transform="translate(118.839137, 305.419864)"><g><path d="M 2.28125 -10.1875 L 2.390625 -10.1875 C 2.773438 -10.1875 3.003906 -10.160156 3.078125 -10.109375 C 3.148438 -10.066406 3.1875 -10.015625 3.1875 -9.953125 L 3.1875 -0.234375 C 3.1875 -0.171875 3.148438 -0.113281 3.078125 -0.0625 C 3.003906 -0.0195312 2.773438 0 2.390625 0 L 2.28125 0 C 1.894531 0 1.660156 -0.015625 1.578125 -0.046875 C 1.492188 -0.0859375 1.453125 -0.148438 1.453125 -0.234375 L 1.453125 -9.953125 C 1.453125 -10.035156 1.492188 -10.09375 1.578125 -10.125 C 1.660156 -10.164062 1.894531 -10.1875 2.28125 -10.1875 Z M 1.09375 -13.3125 C 1.09375 -13.644531 1.210938 -13.929688 1.453125 -14.171875 C 1.691406 -14.410156 1.976562 -14.53125 2.3125 -14.53125 C 2.644531 -14.53125 2.929688 -14.410156 3.171875 -14.171875 C 3.410156 -13.929688 3.53125 -13.644531 3.53125 -13.3125 C 3.53125 -12.976562 3.410156 -12.691406 3.171875 -12.453125 C 2.929688 -12.210938 2.644531 -12.09375 2.3125 -12.09375 C 1.976562 -12.09375 1.691406 -12.210938 1.453125 -12.453125 C 1.210938 -12.691406 1.09375 -12.976562 1.09375 -13.3125 Z M 1.09375 -13.3125 "/></g></g></g><g fill="#f1f1f1" fill-opacity="1"><g transform="translate(125.400207, 305.419864)"><g><path d="M 2.25 -10.1875 L 2.359375 -10.1875 C 2.703125 -10.1875 2.914062 -10.171875 3 -10.140625 C 3.09375 -10.109375 3.140625 -10.046875 3.140625 -9.953125 L 3.171875 -9.09375 L 3.1875 -9.09375 C 3.519531 -9.488281 3.976562 -9.800781 4.5625 -10.03125 C 5.144531 -10.257812 5.734375 -10.375 6.328125 -10.375 C 7.429688 -10.375 8.3125 -10.035156 8.96875 -9.359375 C 9.625 -8.691406 9.953125 -7.597656 9.953125 -6.078125 L 9.953125 -0.234375 C 9.953125 -0.171875 9.914062 -0.113281 9.84375 -0.0625 C 9.78125 -0.0195312 9.554688 0 9.171875 0 L 9.046875 0 C 8.660156 0 8.425781 -0.015625 8.34375 -0.046875 C 8.257812 -0.0859375 8.21875 -0.148438 8.21875 -0.234375 L 8.21875 -5.265625 C 8.21875 -6.046875 8.1875 -6.644531 8.125 -7.0625 C 8.070312 -7.488281 7.929688 -7.835938 7.703125 -8.109375 C 7.347656 -8.523438 6.734375 -8.734375 5.859375 -8.734375 C 5.503906 -8.734375 5.132812 -8.671875 4.75 -8.546875 C 4.363281 -8.429688 4.054688 -8.265625 3.828125 -8.046875 C 3.703125 -7.941406 3.59375 -7.789062 3.5 -7.59375 C 3.40625 -7.394531 3.335938 -7.085938 3.296875 -6.671875 C 3.285156 -6.398438 3.269531 -6.03125 3.25 -5.5625 C 3.238281 -5.101562 3.234375 -4.59375 3.234375 -4.03125 L 3.234375 -0.234375 C 3.234375 -0.171875 3.195312 -0.113281 3.125 -0.0625 C 3.0625 -0.0195312 2.835938 0 2.453125 0 L 2.328125 0 C 1.941406 0 1.707031 -0.015625 1.625 -0.046875 C 1.539062 -0.0859375 1.5 -0.148438 1.5 -0.234375 L 1.5 -6.8125 C 1.5 -7.46875 1.492188 -8.09375 1.484375 -8.6875 C 1.472656 -9.289062 1.46875 -9.710938 1.46875 -9.953125 C 1.46875 -10.035156 1.507812 -10.09375 1.59375 -10.125 C 1.675781 -10.164062 1.894531 -10.1875 2.25 -10.1875 Z M 2.25 -10.1875 "/></g></g></g><g fill="#f1f1f1" fill-opacity="1"><g transform="translate(138.617895, 305.419864)"><g><path d="M 7.796875 -2.703125 L 7.796875 -5.484375 C 7.796875 -6.117188 7.773438 -6.59375 7.734375 -6.90625 C 7.703125 -7.226562 7.625 -7.5 7.5 -7.71875 C 7.351562 -8.007812 7.109375 -8.253906 6.765625 -8.453125 C 6.421875 -8.660156 5.972656 -8.765625 5.421875 -8.765625 C 4.585938 -8.765625 3.921875 -8.425781 3.421875 -7.75 C 2.929688 -7.070312 2.6875 -6.175781 2.6875 -5.0625 C 2.6875 -3.9375 2.90625 -3.070312 3.34375 -2.46875 C 3.78125 -1.863281 4.441406 -1.5625 5.328125 -1.5625 C 5.816406 -1.5625 6.285156 -1.671875 6.734375 -1.890625 C 7.179688 -2.109375 7.535156 -2.378906 7.796875 -2.703125 Z M 8.59375 -10.1875 L 8.640625 -10.1875 C 8.953125 -10.1875 9.15625 -10.171875 9.25 -10.140625 C 9.34375 -10.109375 9.398438 -10.039062 9.421875 -9.9375 C 9.441406 -9.707031 9.457031 -9.382812 9.46875 -8.96875 C 9.488281 -8.550781 9.5 -8.097656 9.5 -7.609375 C 9.507812 -7.128906 9.515625 -6.671875 9.515625 -6.234375 C 9.523438 -5.796875 9.53125 -5.4375 9.53125 -5.15625 L 9.53125 -1.953125 C 9.53125 -1.109375 9.503906 -0.40625 9.453125 0.15625 C 9.398438 0.71875 9.304688 1.222656 9.171875 1.671875 C 8.878906 2.585938 8.335938 3.289062 7.546875 3.78125 C 6.765625 4.269531 5.882812 4.515625 4.90625 4.515625 C 4.582031 4.515625 4.234375 4.488281 3.859375 4.4375 C 3.484375 4.382812 3.128906 4.3125 2.796875 4.21875 C 2.460938 4.132812 2.191406 4.035156 1.984375 3.921875 C 1.929688 3.890625 1.898438 3.820312 1.890625 3.71875 C 1.890625 3.613281 1.925781 3.453125 2 3.234375 L 2.078125 3.015625 C 2.160156 2.773438 2.222656 2.625 2.265625 2.5625 C 2.304688 2.5 2.351562 2.46875 2.40625 2.46875 C 2.457031 2.46875 2.53125 2.484375 2.625 2.515625 C 2.71875 2.554688 2.800781 2.59375 2.875 2.625 C 3.15625 2.71875 3.441406 2.796875 3.734375 2.859375 C 4.023438 2.921875 4.347656 2.953125 4.703125 2.953125 C 5.523438 2.953125 6.1875 2.769531 6.6875 2.40625 C 7.195312 2.050781 7.53125 1.5 7.6875 0.75 C 7.726562 0.488281 7.753906 0.179688 7.765625 -0.171875 C 7.785156 -0.535156 7.796875 -0.84375 7.796875 -1.09375 C 7.453125 -0.726562 7.019531 -0.453125 6.5 -0.265625 C 5.976562 -0.0859375 5.472656 0 4.984375 0 C 4.054688 0 3.285156 -0.21875 2.671875 -0.65625 C 2.054688 -1.09375 1.601562 -1.6875 1.3125 -2.4375 C 1.019531 -3.1875 0.875 -4.035156 0.875 -4.984375 C 0.882812 -6.097656 1.082031 -7.054688 1.46875 -7.859375 C 1.851562 -8.660156 2.375 -9.28125 3.03125 -9.71875 C 3.695312 -10.15625 4.441406 -10.375 5.265625 -10.375 C 5.816406 -10.375 6.3125 -10.265625 6.75 -10.046875 C 7.195312 -9.828125 7.539062 -9.523438 7.78125 -9.140625 L 7.796875 -9.140625 L 7.796875 -9.9375 C 7.796875 -10.03125 7.847656 -10.09375 7.953125 -10.125 C 8.054688 -10.164062 8.269531 -10.1875 8.59375 -10.1875 Z M 8.59375 -10.1875 "/></g></g></g><g fill="#f1f1f1" fill-opacity="1"><g transform="translate(151.449696, 305.419864)"><g/></g></g><g fill="#f1f1f1" fill-opacity="1"><g transform="translate(158.20371, 305.419864)"><g><path d="M 8.5625 -14.671875 L 8.6875 -14.671875 C 8.988281 -14.671875 9.191406 -14.648438 9.296875 -14.609375 C 9.410156 -14.578125 9.46875 -14.515625 9.46875 -14.421875 L 9.46875 -2.40625 C 9.46875 -1.9375 9.515625 -1.644531 9.609375 -1.53125 C 9.710938 -1.425781 9.894531 -1.375 10.15625 -1.375 C 10.21875 -1.375 10.257812 -1.335938 10.28125 -1.265625 C 10.3125 -1.191406 10.328125 -1.050781 10.328125 -0.84375 L 10.328125 -0.71875 C 10.328125 -0.476562 10.3125 -0.316406 10.28125 -0.234375 C 10.257812 -0.148438 10.21875 -0.0976562 10.15625 -0.078125 C 10.019531 -0.0234375 9.882812 0.00390625 9.75 0.015625 C 9.613281 0.0234375 9.460938 0.03125 9.296875 0.03125 C 9.015625 0.03125 8.75 -0.0546875 8.5 -0.234375 C 8.257812 -0.421875 8.082031 -0.703125 7.96875 -1.078125 L 7.953125 -1.078125 C 7.703125 -0.753906 7.320312 -0.460938 6.8125 -0.203125 C 6.300781 0.0546875 5.695312 0.1875 5 0.1875 C 3.726562 0.1875 2.722656 -0.257812 1.984375 -1.15625 C 1.242188 -2.0625 0.875 -3.300781 0.875 -4.875 C 0.875 -5.84375 1.039062 -6.742188 1.375 -7.578125 C 1.71875 -8.421875 2.234375 -9.097656 2.921875 -9.609375 C 3.617188 -10.117188 4.5 -10.375 5.5625 -10.375 C 5.957031 -10.375 6.359375 -10.3125 6.765625 -10.1875 C 7.171875 -10.0625 7.492188 -9.914062 7.734375 -9.75 L 7.734375 -14.421875 C 7.734375 -14.515625 7.789062 -14.578125 7.90625 -14.609375 C 8.019531 -14.648438 8.238281 -14.671875 8.5625 -14.671875 Z M 7.734375 -4.703125 L 7.734375 -8.078125 C 7.492188 -8.285156 7.179688 -8.457031 6.796875 -8.59375 C 6.421875 -8.726562 6.039062 -8.796875 5.65625 -8.796875 C 4.75 -8.796875 4.023438 -8.445312 3.484375 -7.75 C 2.953125 -7.050781 2.6875 -6.113281 2.6875 -4.9375 C 2.6875 -3.757812 2.941406 -2.863281 3.453125 -2.25 C 3.960938 -1.644531 4.59375 -1.34375 5.34375 -1.34375 C 5.675781 -1.34375 6.007812 -1.394531 6.34375 -1.5 C 6.675781 -1.613281 6.953125 -1.78125 7.171875 -2 C 7.390625 -2.21875 7.535156 -2.519531 7.609375 -2.90625 C 7.691406 -3.300781 7.734375 -3.898438 7.734375 -4.703125 Z M 7.734375 -4.703125 "/></g></g></g><g fill="#f1f1f1" fill-opacity="1"><g transform="translate(171.324931, 305.419864)"><g><path d="M 2.28125 -10.1875 L 2.390625 -10.1875 C 2.773438 -10.1875 3.003906 -10.160156 3.078125 -10.109375 C 3.148438 -10.066406 3.1875 -10.015625 3.1875 -9.953125 L 3.1875 -0.234375 C 3.1875 -0.171875 3.148438 -0.113281 3.078125 -0.0625 C 3.003906 -0.0195312 2.773438 0 2.390625 0 L 2.28125 0 C 1.894531 0 1.660156 -0.015625 1.578125 -0.046875 C 1.492188 -0.0859375 1.453125 -0.148438 1.453125 -0.234375 L 1.453125 -9.953125 C 1.453125 -10.035156 1.492188 -10.09375 1.578125 -10.125 C 1.660156 -10.164062 1.894531 -10.1875 2.28125 -10.1875 Z M 1.09375 -13.3125 C 1.09375 -13.644531 1.210938 -13.929688 1.453125 -14.171875 C 1.691406 -14.410156 1.976562 -14.53125 2.3125 -14.53125 C 2.644531 -14.53125 2.929688 -14.410156 3.171875 -14.171875 C 3.410156 -13.929688 3.53125 -13.644531 3.53125 -13.3125 C 3.53125 -12.976562 3.410156 -12.691406 3.171875 -12.453125 C 2.929688 -12.210938 2.644531 -12.09375 2.3125 -12.09375 C 1.976562 -12.09375 1.691406 -12.210938 1.453125 -12.453125 C 1.210938 -12.691406 1.09375 -12.976562 1.09375 -13.3125 Z M 1.09375 -13.3125 "/></g></g></g><g fill="#f1f1f1" fill-opacity="1"><g transform="translate(177.886001, 305.419864)"><g><path d="M 7.796875 -2.703125 L 7.796875 -5.484375 C 7.796875 -6.117188 7.773438 -6.59375 7.734375 -6.90625 C 7.703125 -7.226562 7.625 -7.5 7.5 -7.71875 C 7.351562 -8.007812 7.109375 -8.253906 6.765625 -8.453125 C 6.421875 -8.660156 5.972656 -8.765625 5.421875 -8.765625 C 4.585938 -8.765625 3.921875 -8.425781 3.421875 -7.75 C 2.929688 -7.070312 2.6875 -6.175781 2.6875 -5.0625 C 2.6875 -3.9375 2.90625 -3.070312 3.34375 -2.46875 C 3.78125 -1.863281 4.441406 -1.5625 5.328125 -1.5625 C 5.816406 -1.5625 6.285156 -1.671875 6.734375 -1.890625 C 7.179688 -2.109375 7.535156 -2.378906 7.796875 -2.703125 Z M 8.59375 -10.1875 L 8.640625 -10.1875 C 8.953125 -10.1875 9.15625 -10.171875 9.25 -10.140625 C 9.34375 -10.109375 9.398438 -10.039062 9.421875 -9.9375 C 9.441406 -9.707031 9.457031 -9.382812 9.46875 -8.96875 C 9.488281 -8.550781 9.5 -8.097656 9.5 -7.609375 C 9.507812 -7.128906 9.515625 -6.671875 9.515625 -6.234375 C 9.523438 -5.796875 9.53125 -5.4375 9.53125 -5.15625 L 9.53125 -1.953125 C 9.53125 -1.109375 9.503906 -0.40625 9.453125 0.15625 C 9.398438 0.71875 9.304688 1.222656 9.171875 1.671875 C 8.878906 2.585938 8.335938 3.289062 7.546875 3.78125 C 6.765625 4.269531 5.882812 4.515625 4.90625 4.515625 C 4.582031 4.515625 4.234375 4.488281 3.859375 4.4375 C 3.484375 4.382812 3.128906 4.3125 2.796875 4.21875 C 2.460938 4.132812 2.191406 4.035156 1.984375 3.921875 C 1.929688 3.890625 1.898438 3.820312 1.890625 3.71875 C 1.890625 3.613281 1.925781 3.453125 2 3.234375 L 2.078125 3.015625 C 2.160156 2.773438 2.222656 2.625 2.265625 2.5625 C 2.304688 2.5 2.351562 2.46875 2.40625 2.46875 C 2.457031 2.46875 2.53125 2.484375 2.625 2.515625 C 2.71875 2.554688 2.800781 2.59375 2.875 2.625 C 3.15625 2.71875 3.441406 2.796875 3.734375 2.859375 C 4.023438 2.921875 4.347656 2.953125 4.703125 2.953125 C 5.523438 2.953125 6.1875 2.769531 6.6875 2.40625 C 7.195312 2.050781 7.53125 1.5 7.6875 0.75 C 7.726562 0.488281 7.753906 0.179688 7.765625 -0.171875 C 7.785156 -0.535156 7.796875 -0.84375 7.796875 -1.09375 C 7.453125 -0.726562 7.019531 -0.453125 6.5 -0.265625 C 5.976562 -0.0859375 5.472656 0 4.984375 0 C 4.054688 0 3.285156 -0.21875 2.671875 -0.65625 C 2.054688 -1.09375 1.601562 -1.6875 1.3125 -2.4375 C 1.019531 -3.1875 0.875 -4.035156 0.875 -4.984375 C 0.882812 -6.097656 1.082031 -7.054688 1.46875 -7.859375 C 1.851562 -8.660156 2.375 -9.28125 3.03125 -9.71875 C 3.695312 -10.15625 4.441406 -10.375 5.265625 -10.375 C 5.816406 -10.375 6.3125 -10.265625 6.75 -10.046875 C 7.195312 -9.828125 7.539062 -9.523438 7.78125 -9.140625 L 7.796875 -9.140625 L 7.796875 -9.9375 C 7.796875 -10.03125 7.847656 -10.09375 7.953125 -10.125 C 8.054688 -10.164062 8.269531 -10.1875 8.59375 -10.1875 Z M 8.59375 -10.1875 "/></g></g></g><g fill="#f1f1f1" fill-opacity="1"><g transform="translate(190.717802, 305.419864)"><g><path d="M 2.28125 -10.1875 L 2.390625 -10.1875 C 2.773438 -10.1875 3.003906 -10.160156 3.078125 -10.109375 C 3.148438 -10.066406 3.1875 -10.015625 3.1875 -9.953125 L 3.1875 -0.234375 C 3.1875 -0.171875 3.148438 -0.113281 3.078125 -0.0625 C 3.003906 -0.0195312 2.773438 0 2.390625 0 L 2.28125 0 C 1.894531 0 1.660156 -0.015625 1.578125 -0.046875 C 1.492188 -0.0859375 1.453125 -0.148438 1.453125 -0.234375 L 1.453125 -9.953125 C 1.453125 -10.035156 1.492188 -10.09375 1.578125 -10.125 C 1.660156 -10.164062 1.894531 -10.1875 2.28125 -10.1875 Z M 1.09375 -13.3125 C 1.09375 -13.644531 1.210938 -13.929688 1.453125 -14.171875 C 1.691406 -14.410156 1.976562 -14.53125 2.3125 -14.53125 C 2.644531 -14.53125 2.929688 -14.410156 3.171875 -14.171875 C 3.410156 -13.929688 3.53125 -13.644531 3.53125 -13.3125 C 3.53125 -12.976562 3.410156 -12.691406 3.171875 -12.453125 C 2.929688 -12.210938 2.644531 -12.09375 2.3125 -12.09375 C 1.976562 -12.09375 1.691406 -12.210938 1.453125 -12.453125 C 1.210938 -12.691406 1.09375 -12.976562 1.09375 -13.3125 Z M 1.09375 -13.3125 "/></g></g></g><g fill="#f1f1f1" fill-opacity="1"><g transform="translate(197.278873, 305.419864)"><g><path d="M 2.703125 -13.046875 L 2.8125 -13.046875 C 3.195312 -13.046875 3.425781 -13.019531 3.5 -12.96875 C 3.570312 -12.925781 3.609375 -12.875 3.609375 -12.8125 L 3.609375 -10.1875 L 6.046875 -10.1875 C 6.109375 -10.1875 6.148438 -10.148438 6.171875 -10.078125 C 6.203125 -10.003906 6.21875 -9.84375 6.21875 -9.59375 L 6.21875 -9.4375 C 6.21875 -9.175781 6.203125 -9.003906 6.171875 -8.921875 C 6.148438 -8.847656 6.109375 -8.8125 6.046875 -8.8125 L 3.609375 -8.8125 L 3.609375 -3.125 C 3.609375 -2.757812 3.625 -2.457031 3.65625 -2.21875 C 3.695312 -1.976562 3.785156 -1.785156 3.921875 -1.640625 C 4.140625 -1.410156 4.46875 -1.296875 4.90625 -1.296875 C 5.125 -1.296875 5.347656 -1.320312 5.578125 -1.375 C 5.804688 -1.4375 6.019531 -1.492188 6.21875 -1.546875 C 6.320312 -1.566406 6.390625 -1.550781 6.421875 -1.5 C 6.460938 -1.445312 6.507812 -1.332031 6.5625 -1.15625 L 6.625 -0.90625 C 6.675781 -0.695312 6.695312 -0.550781 6.6875 -0.46875 C 6.675781 -0.394531 6.632812 -0.335938 6.5625 -0.296875 C 6.3125 -0.140625 6 -0.0195312 5.625 0.0625 C 5.257812 0.144531 4.894531 0.1875 4.53125 0.1875 C 3.695312 0.1875 3.054688 -0.0195312 2.609375 -0.4375 C 2.328125 -0.695312 2.132812 -1.023438 2.03125 -1.421875 C 1.925781 -1.828125 1.875 -2.347656 1.875 -2.984375 L 1.875 -8.8125 L 0.65625 -8.8125 C 0.59375 -8.8125 0.546875 -8.847656 0.515625 -8.921875 C 0.492188 -9.003906 0.484375 -9.175781 0.484375 -9.4375 L 0.484375 -9.59375 C 0.484375 -9.84375 0.492188 -10.003906 0.515625 -10.078125 C 0.546875 -10.148438 0.59375 -10.1875 0.65625 -10.1875 L 1.875 -10.1875 L 1.875 -12.8125 C 1.875 -12.882812 1.914062 -12.941406 2 -12.984375 C 2.082031 -13.023438 2.316406 -13.046875 2.703125 -13.046875 Z M 2.703125 -13.046875 "/></g></g></g><g fill="#f1f1f1" fill-opacity="1"><g transform="translate(206.309645, 305.419864)"><g><path d="M 8.703125 -10.1875 L 8.734375 -10.1875 C 9.109375 -10.1875 9.328125 -10.164062 9.390625 -10.125 C 9.460938 -10.09375 9.5 -10.035156 9.5 -9.953125 C 9.5 -9.722656 9.488281 -9.332031 9.46875 -8.78125 C 9.457031 -8.226562 9.453125 -7.644531 9.453125 -7.03125 L 9.453125 -4.328125 C 9.453125 -3.429688 9.46875 -2.65625 9.5 -2 C 9.53125 -1.34375 9.5625 -0.753906 9.59375 -0.234375 C 9.59375 -0.148438 9.550781 -0.0859375 9.46875 -0.046875 C 9.382812 -0.015625 9.191406 0 8.890625 0 L 8.8125 0 C 8.519531 0 8.328125 -0.015625 8.234375 -0.046875 C 8.148438 -0.078125 8.097656 -0.140625 8.078125 -0.234375 L 7.96875 -1.125 C 7.65625 -0.75 7.238281 -0.4375 6.71875 -0.1875 C 6.195312 0.0625 5.625 0.1875 5 0.1875 C 4.0625 0.1875 3.285156 -0.046875 2.671875 -0.515625 C 2.054688 -0.984375 1.601562 -1.601562 1.3125 -2.375 C 1.019531 -3.144531 0.875 -3.992188 0.875 -4.921875 C 0.875 -6.023438 1.066406 -6.984375 1.453125 -7.796875 C 1.835938 -8.617188 2.363281 -9.253906 3.03125 -9.703125 C 3.695312 -10.148438 4.457031 -10.375 5.3125 -10.375 C 5.882812 -10.375 6.390625 -10.253906 6.828125 -10.015625 C 7.273438 -9.785156 7.632812 -9.492188 7.90625 -9.140625 L 8.015625 -9.953125 C 8.023438 -10.066406 8.070312 -10.132812 8.15625 -10.15625 C 8.238281 -10.175781 8.421875 -10.1875 8.703125 -10.1875 Z M 7.71875 -4.765625 L 7.71875 -7.5 C 7.5 -7.851562 7.1875 -8.160156 6.78125 -8.421875 C 6.375 -8.679688 5.945312 -8.8125 5.5 -8.8125 C 4.613281 -8.8125 3.921875 -8.46875 3.421875 -7.78125 C 2.929688 -7.09375 2.6875 -6.171875 2.6875 -5.015625 C 2.6875 -4.410156 2.765625 -3.828125 2.921875 -3.265625 C 3.085938 -2.710938 3.363281 -2.253906 3.75 -1.890625 C 4.132812 -1.523438 4.65625 -1.34375 5.3125 -1.34375 C 5.632812 -1.34375 5.96875 -1.394531 6.3125 -1.5 C 6.664062 -1.613281 6.972656 -1.816406 7.234375 -2.109375 C 7.378906 -2.253906 7.484375 -2.421875 7.546875 -2.609375 C 7.609375 -2.804688 7.648438 -3.078125 7.671875 -3.421875 C 7.703125 -3.765625 7.71875 -4.210938 7.71875 -4.765625 Z M 7.71875 -4.765625 "/></g></g></g><g fill="#f1f1f1" fill-opacity="1"><g transform="translate(219.180034, 305.419864)"><g><path d="M 2.109375 -14.671875 L 2.21875 -14.671875 C 2.53125 -14.671875 2.734375 -14.648438 2.828125 -14.609375 C 2.929688 -14.578125 2.992188 -14.515625 3.015625 -14.421875 C 3.046875 -14.234375 3.066406 -13.867188 3.078125 -13.328125 C 3.097656 -12.796875 3.109375 -12.128906 3.109375 -11.328125 C 3.117188 -10.523438 3.125 -9.648438 3.125 -8.703125 L 3.125 -2.296875 C 3.125 -1.929688 3.164062 -1.675781 3.25 -1.53125 C 3.332031 -1.394531 3.535156 -1.328125 3.859375 -1.328125 L 4.046875 -1.328125 C 4.097656 -1.328125 4.128906 -1.296875 4.140625 -1.234375 C 4.160156 -1.171875 4.171875 -1.03125 4.171875 -0.8125 L 4.171875 -0.75 C 4.171875 -0.507812 4.164062 -0.351562 4.15625 -0.28125 C 4.15625 -0.207031 4.117188 -0.160156 4.046875 -0.140625 C 3.765625 -0.0351562 3.460938 0.015625 3.140625 0.015625 C 2.867188 0.015625 2.609375 -0.0234375 2.359375 -0.109375 C 2.109375 -0.203125 1.894531 -0.378906 1.71875 -0.640625 C 1.59375 -0.816406 1.503906 -1.066406 1.453125 -1.390625 C 1.410156 -1.722656 1.390625 -2.144531 1.390625 -2.65625 L 1.390625 -9.125 C 1.390625 -9.8125 1.382812 -10.507812 1.375 -11.21875 C 1.375 -11.9375 1.363281 -12.585938 1.34375 -13.171875 C 1.332031 -13.753906 1.3125 -14.171875 1.28125 -14.421875 C 1.257812 -14.515625 1.3125 -14.578125 1.4375 -14.609375 C 1.5625 -14.648438 1.785156 -14.671875 2.109375 -14.671875 Z M 2.109375 -14.671875 "/></g></g></g><g fill="#f1f1f1" fill-opacity="1"><g transform="translate(226.049817, 305.419864)"><g/></g></g><g fill="#f1f1f1" fill-opacity="1"><g transform="translate(232.803831, 305.419864)"><g><path d="M 0.75 -10.1875 L 1.96875 -10.1875 L 1.96875 -10.65625 C 1.96875 -12.019531 2.253906 -13.0625 2.828125 -13.78125 C 3.410156 -14.5 4.296875 -14.859375 5.484375 -14.859375 C 6.160156 -14.859375 6.804688 -14.71875 7.421875 -14.4375 C 7.492188 -14.40625 7.53125 -14.347656 7.53125 -14.265625 C 7.53125 -14.179688 7.492188 -14.015625 7.421875 -13.765625 L 7.40625 -13.6875 C 7.351562 -13.4375 7.300781 -13.269531 7.25 -13.1875 C 7.195312 -13.113281 7.132812 -13.09375 7.0625 -13.125 C 6.820312 -13.207031 6.570312 -13.273438 6.3125 -13.328125 C 6.050781 -13.378906 5.789062 -13.40625 5.53125 -13.40625 C 4.800781 -13.40625 4.3125 -13.164062 4.0625 -12.6875 C 3.820312 -12.207031 3.703125 -11.535156 3.703125 -10.671875 L 3.703125 -10.1875 L 5.9375 -10.1875 C 6.007812 -10.1875 6.054688 -10.144531 6.078125 -10.0625 C 6.097656 -9.988281 6.109375 -9.828125 6.109375 -9.578125 L 6.109375 -9.421875 C 6.109375 -9.171875 6.097656 -9.003906 6.078125 -8.921875 C 6.054688 -8.847656 6.007812 -8.8125 5.9375 -8.8125 L 3.703125 -8.8125 L 3.703125 -0.234375 C 3.703125 -0.171875 3.664062 -0.113281 3.59375 -0.0625 C 3.53125 -0.0195312 3.300781 0 2.90625 0 L 2.796875 0 C 2.410156 0 2.175781 -0.015625 2.09375 -0.046875 C 2.007812 -0.0859375 1.96875 -0.148438 1.96875 -0.234375 L 1.96875 -8.8125 L 0.75 -8.8125 C 0.6875 -8.8125 0.640625 -8.847656 0.609375 -8.921875 C 0.585938 -9.003906 0.578125 -9.171875 0.578125 -9.421875 L 0.578125 -9.578125 C 0.578125 -9.828125 0.585938 -9.988281 0.609375 -10.0625 C 0.640625 -10.144531 0.6875 -10.1875 0.75 -10.1875 Z M 0.75 -10.1875 "/></g></g></g><g fill="#f1f1f1" fill-opacity="1"><g transform="translate(241.159307, 305.419864)"><g><path d="M 2.109375 -10.1875 L 2.25 -10.1875 C 2.625 -10.1875 2.851562 -10.164062 2.9375 -10.125 C 3.019531 -10.09375 3.0625 -10.035156 3.0625 -9.953125 L 3.0625 -4.90625 C 3.0625 -4.144531 3.085938 -3.546875 3.140625 -3.109375 C 3.203125 -2.671875 3.335938 -2.320312 3.546875 -2.0625 C 3.910156 -1.625 4.484375 -1.40625 5.265625 -1.40625 C 5.640625 -1.40625 6.023438 -1.46875 6.421875 -1.59375 C 6.828125 -1.71875 7.144531 -1.890625 7.375 -2.109375 C 7.507812 -2.234375 7.625 -2.398438 7.71875 -2.609375 C 7.8125 -2.828125 7.878906 -3.132812 7.921875 -3.53125 C 7.960938 -3.925781 7.984375 -4.476562 7.984375 -5.1875 L 7.984375 -9.953125 C 7.984375 -10.015625 8.03125 -10.066406 8.125 -10.109375 C 8.226562 -10.160156 8.441406 -10.1875 8.765625 -10.1875 L 8.9375 -10.1875 C 9.269531 -10.1875 9.484375 -10.164062 9.578125 -10.125 C 9.671875 -10.09375 9.71875 -10.035156 9.71875 -9.953125 L 9.71875 -3.375 C 9.71875 -2.71875 9.722656 -2.085938 9.734375 -1.484375 C 9.753906 -0.890625 9.765625 -0.472656 9.765625 -0.234375 C 9.765625 -0.148438 9.722656 -0.0859375 9.640625 -0.046875 C 9.566406 -0.015625 9.34375 0 8.96875 0 L 8.890625 0 C 8.554688 0 8.34375 -0.015625 8.25 -0.046875 C 8.15625 -0.0859375 8.109375 -0.148438 8.109375 -0.234375 L 8.0625 -1.0625 L 8.046875 -1.0625 C 7.679688 -0.664062 7.234375 -0.359375 6.703125 -0.140625 C 6.179688 0.078125 5.5625 0.1875 4.84375 0.1875 C 3.769531 0.1875 2.914062 -0.148438 2.28125 -0.828125 C 1.945312 -1.191406 1.703125 -1.632812 1.546875 -2.15625 C 1.398438 -2.675781 1.328125 -3.328125 1.328125 -4.109375 L 1.328125 -9.953125 C 1.328125 -10.015625 1.363281 -10.066406 1.4375 -10.109375 C 1.519531 -10.160156 1.742188 -10.1875 2.109375 -10.1875 Z M 2.109375 -10.1875 "/></g></g></g><g fill="#f1f1f1" fill-opacity="1"><g transform="translate(254.29982, 305.419864)"><g><path d="M 2.703125 -13.046875 L 2.8125 -13.046875 C 3.195312 -13.046875 3.425781 -13.019531 3.5 -12.96875 C 3.570312 -12.925781 3.609375 -12.875 3.609375 -12.8125 L 3.609375 -10.1875 L 6.046875 -10.1875 C 6.109375 -10.1875 6.148438 -10.148438 6.171875 -10.078125 C 6.203125 -10.003906 6.21875 -9.84375 6.21875 -9.59375 L 6.21875 -9.4375 C 6.21875 -9.175781 6.203125 -9.003906 6.171875 -8.921875 C 6.148438 -8.847656 6.109375 -8.8125 6.046875 -8.8125 L 3.609375 -8.8125 L 3.609375 -3.125 C 3.609375 -2.757812 3.625 -2.457031 3.65625 -2.21875 C 3.695312 -1.976562 3.785156 -1.785156 3.921875 -1.640625 C 4.140625 -1.410156 4.46875 -1.296875 4.90625 -1.296875 C 5.125 -1.296875 5.347656 -1.320312 5.578125 -1.375 C 5.804688 -1.4375 6.019531 -1.492188 6.21875 -1.546875 C 6.320312 -1.566406 6.390625 -1.550781 6.421875 -1.5 C 6.460938 -1.445312 6.507812 -1.332031 6.5625 -1.15625 L 6.625 -0.90625 C 6.675781 -0.695312 6.695312 -0.550781 6.6875 -0.46875 C 6.675781 -0.394531 6.632812 -0.335938 6.5625 -0.296875 C 6.3125 -0.140625 6 -0.0195312 5.625 0.0625 C 5.257812 0.144531 4.894531 0.1875 4.53125 0.1875 C 3.695312 0.1875 3.054688 -0.0195312 2.609375 -0.4375 C 2.328125 -0.695312 2.132812 -1.023438 2.03125 -1.421875 C 1.925781 -1.828125 1.875 -2.347656 1.875 -2.984375 L 1.875 -8.8125 L 0.65625 -8.8125 C 0.59375 -8.8125 0.546875 -8.847656 0.515625 -8.921875 C 0.492188 -9.003906 0.484375 -9.175781 0.484375 -9.4375 L 0.484375 -9.59375 C 0.484375 -9.84375 0.492188 -10.003906 0.515625 -10.078125 C 0.546875 -10.148438 0.59375 -10.1875 0.65625 -10.1875 L 1.875 -10.1875 L 1.875 -12.8125 C 1.875 -12.882812 1.914062 -12.941406 2 -12.984375 C 2.082031 -13.023438 2.316406 -13.046875 2.703125 -13.046875 Z M 2.703125 -13.046875 "/></g></g></g><g fill="#f1f1f1" fill-opacity="1"><g transform="translate(263.330602, 305.419864)"><g><path d="M 2.109375 -10.1875 L 2.25 -10.1875 C 2.625 -10.1875 2.851562 -10.164062 2.9375 -10.125 C 3.019531 -10.09375 3.0625 -10.035156 3.0625 -9.953125 L 3.0625 -4.90625 C 3.0625 -4.144531 3.085938 -3.546875 3.140625 -3.109375 C 3.203125 -2.671875 3.335938 -2.320312 3.546875 -2.0625 C 3.910156 -1.625 4.484375 -1.40625 5.265625 -1.40625 C 5.640625 -1.40625 6.023438 -1.46875 6.421875 -1.59375 C 6.828125 -1.71875 7.144531 -1.890625 7.375 -2.109375 C 7.507812 -2.234375 7.625 -2.398438 7.71875 -2.609375 C 7.8125 -2.828125 7.878906 -3.132812 7.921875 -3.53125 C 7.960938 -3.925781 7.984375 -4.476562 7.984375 -5.1875 L 7.984375 -9.953125 C 7.984375 -10.015625 8.03125 -10.066406 8.125 -10.109375 C 8.226562 -10.160156 8.441406 -10.1875 8.765625 -10.1875 L 8.9375 -10.1875 C 9.269531 -10.1875 9.484375 -10.164062 9.578125 -10.125 C 9.671875 -10.09375 9.71875 -10.035156 9.71875 -9.953125 L 9.71875 -3.375 C 9.71875 -2.71875 9.722656 -2.085938 9.734375 -1.484375 C 9.753906 -0.890625 9.765625 -0.472656 9.765625 -0.234375 C 9.765625 -0.148438 9.722656 -0.0859375 9.640625 -0.046875 C 9.566406 -0.015625 9.34375 0 8.96875 0 L 8.890625 0 C 8.554688 0 8.34375 -0.015625 8.25 -0.046875 C 8.15625 -0.0859375 8.109375 -0.148438 8.109375 -0.234375 L 8.0625 -1.0625 L 8.046875 -1.0625 C 7.679688 -0.664062 7.234375 -0.359375 6.703125 -0.140625 C 6.179688 0.078125 5.5625 0.1875 4.84375 0.1875 C 3.769531 0.1875 2.914062 -0.148438 2.28125 -0.828125 C 1.945312 -1.191406 1.703125 -1.632812 1.546875 -2.15625 C 1.398438 -2.675781 1.328125 -3.328125 1.328125 -4.109375 L 1.328125 -9.953125 C 1.328125 -10.015625 1.363281 -10.066406 1.4375 -10.109375 C 1.519531 -10.160156 1.742188 -10.1875 2.109375 -10.1875 Z M 2.109375 -10.1875 "/></g></g></g><g fill="#f1f1f1" fill-opacity="1"><g transform="translate(276.471116, 305.419864)"><g><path d="M 2.234375 -10.1875 L 2.328125 -10.1875 C 2.679688 -10.1875 2.898438 -10.171875 2.984375 -10.140625 C 3.078125 -10.109375 3.125 -10.046875 3.125 -9.953125 L 3.171875 -7.96875 C 3.535156 -8.78125 3.960938 -9.367188 4.453125 -9.734375 C 4.953125 -10.109375 5.460938 -10.296875 5.984375 -10.296875 C 6.066406 -10.296875 6.140625 -10.289062 6.203125 -10.28125 C 6.273438 -10.28125 6.335938 -10.273438 6.390625 -10.265625 C 6.472656 -10.253906 6.523438 -10.210938 6.546875 -10.140625 C 6.566406 -10.078125 6.578125 -9.9375 6.578125 -9.71875 L 6.578125 -9.4375 C 6.578125 -9.15625 6.566406 -8.960938 6.546875 -8.859375 C 6.523438 -8.765625 6.46875 -8.71875 6.375 -8.71875 C 5.6875 -8.71875 5.144531 -8.535156 4.75 -8.171875 C 4.363281 -7.816406 4.03125 -7.414062 3.75 -6.96875 C 3.476562 -6.519531 3.320312 -5.96875 3.28125 -5.3125 C 3.269531 -5.039062 3.253906 -4.632812 3.234375 -4.09375 C 3.222656 -3.5625 3.21875 -3.015625 3.21875 -2.453125 L 3.21875 -0.234375 C 3.21875 -0.171875 3.179688 -0.113281 3.109375 -0.0625 C 3.046875 -0.0195312 2.820312 0 2.4375 0 L 2.3125 0 C 1.925781 0 1.691406 -0.015625 1.609375 -0.046875 C 1.523438 -0.0859375 1.484375 -0.148438 1.484375 -0.234375 L 1.484375 -6.8125 C 1.484375 -7.46875 1.476562 -8.09375 1.46875 -8.6875 C 1.457031 -9.289062 1.453125 -9.710938 1.453125 -9.953125 C 1.453125 -10.035156 1.492188 -10.09375 1.578125 -10.125 C 1.660156 -10.164062 1.878906 -10.1875 2.234375 -10.1875 Z M 2.234375 -10.1875 "/></g></g></g><g fill="#f1f1f1" fill-opacity="1"><g transform="translate(285.328239, 305.419864)"><g><path d="M 9.46875 -4.484375 L 2.6875 -4.484375 C 2.707031 -3.953125 2.796875 -3.484375 2.953125 -3.078125 C 3.117188 -2.671875 3.347656 -2.335938 3.640625 -2.078125 C 4.171875 -1.617188 4.929688 -1.390625 5.921875 -1.390625 C 6.722656 -1.390625 7.570312 -1.59375 8.46875 -2 C 8.5625 -2.039062 8.640625 -2.050781 8.703125 -2.03125 C 8.773438 -2.007812 8.859375 -1.878906 8.953125 -1.640625 L 9.046875 -1.40625 C 9.148438 -1.164062 9.203125 -1 9.203125 -0.90625 C 9.203125 -0.8125 9.164062 -0.738281 9.09375 -0.6875 C 8.082031 -0.101562 6.914062 0.1875 5.59375 0.1875 C 4.039062 0.1875 2.863281 -0.265625 2.0625 -1.171875 C 1.269531 -2.078125 0.875 -3.304688 0.875 -4.859375 C 0.875 -5.941406 1.054688 -6.894531 1.421875 -7.71875 C 1.796875 -8.550781 2.332031 -9.203125 3.03125 -9.671875 C 3.726562 -10.140625 4.550781 -10.375 5.5 -10.375 C 6.363281 -10.375 7.085938 -10.179688 7.671875 -9.796875 C 8.253906 -9.410156 8.707031 -8.898438 9.03125 -8.265625 C 9.25 -7.828125 9.410156 -7.34375 9.515625 -6.8125 C 9.617188 -6.28125 9.671875 -5.734375 9.671875 -5.171875 C 9.671875 -4.890625 9.65625 -4.703125 9.625 -4.609375 C 9.601562 -4.523438 9.550781 -4.484375 9.46875 -4.484375 Z M 2.734375 -5.90625 L 7.890625 -5.90625 C 7.890625 -6.394531 7.800781 -6.859375 7.625 -7.296875 C 7.457031 -7.734375 7.195312 -8.09375 6.84375 -8.375 C 6.5 -8.65625 6.054688 -8.796875 5.515625 -8.796875 C 4.804688 -8.796875 4.203125 -8.5625 3.703125 -8.09375 C 3.203125 -7.625 2.878906 -6.894531 2.734375 -5.90625 Z M 2.734375 -5.90625 "/></g></g></g><g fill="#f1f1f1" fill-opacity="1"><g transform="translate(297.75486, 305.419864)"><g><path d="M 7.609375 -8.625 L 7.46875 -8.4375 C 7.300781 -8.1875 7.175781 -8.046875 7.09375 -8.015625 C 7.019531 -7.984375 6.953125 -7.992188 6.890625 -8.046875 C 6.523438 -8.304688 6.164062 -8.507812 5.8125 -8.65625 C 5.457031 -8.8125 5.070312 -8.890625 4.65625 -8.890625 C 4.394531 -8.890625 4.113281 -8.847656 3.8125 -8.765625 C 3.507812 -8.679688 3.25 -8.539062 3.03125 -8.34375 C 2.820312 -8.15625 2.71875 -7.882812 2.71875 -7.53125 C 2.71875 -7.175781 2.820312 -6.898438 3.03125 -6.703125 C 3.238281 -6.515625 3.492188 -6.363281 3.796875 -6.25 C 4.109375 -6.144531 4.421875 -6.054688 4.734375 -5.984375 C 5.253906 -5.859375 5.765625 -5.6875 6.265625 -5.46875 C 6.773438 -5.257812 7.1875 -4.960938 7.5 -4.578125 C 7.820312 -4.191406 7.984375 -3.660156 7.984375 -2.984375 C 7.984375 -2.304688 7.8125 -1.726562 7.46875 -1.25 C 7.125 -0.78125 6.65625 -0.421875 6.0625 -0.171875 C 5.476562 0.0664062 4.832031 0.1875 4.125 0.1875 C 3.507812 0.1875 2.921875 0.09375 2.359375 -0.09375 C 1.804688 -0.289062 1.34375 -0.515625 0.96875 -0.765625 C 0.875 -0.835938 0.835938 -0.914062 0.859375 -1 C 0.878906 -1.09375 0.941406 -1.25 1.046875 -1.46875 L 1.140625 -1.671875 C 1.265625 -1.941406 1.359375 -2.097656 1.421875 -2.140625 C 1.492188 -2.179688 1.59375 -2.160156 1.71875 -2.078125 C 2.09375 -1.878906 2.5 -1.703125 2.9375 -1.546875 C 3.375 -1.390625 3.800781 -1.3125 4.21875 -1.3125 C 4.519531 -1.3125 4.832031 -1.363281 5.15625 -1.46875 C 5.488281 -1.570312 5.769531 -1.738281 6 -1.96875 C 6.226562 -2.195312 6.34375 -2.5 6.34375 -2.875 C 6.34375 -3.21875 6.226562 -3.492188 6 -3.703125 C 5.769531 -3.910156 5.484375 -4.070312 5.140625 -4.1875 C 4.796875 -4.3125 4.457031 -4.410156 4.125 -4.484375 C 3.613281 -4.597656 3.164062 -4.726562 2.78125 -4.875 C 2.40625 -5.019531 2.085938 -5.21875 1.828125 -5.46875 C 1.316406 -5.9375 1.0625 -6.554688 1.0625 -7.328125 C 1.0625 -7.960938 1.222656 -8.507812 1.546875 -8.96875 C 1.878906 -9.425781 2.316406 -9.773438 2.859375 -10.015625 C 3.398438 -10.253906 3.988281 -10.375 4.625 -10.375 C 5.226562 -10.375 5.796875 -10.273438 6.328125 -10.078125 C 6.867188 -9.890625 7.320312 -9.640625 7.6875 -9.328125 C 7.757812 -9.253906 7.796875 -9.164062 7.796875 -9.0625 C 7.804688 -8.96875 7.742188 -8.820312 7.609375 -8.625 Z M 7.609375 -8.625 "/></g></g></g></svg>