<svg xmlns="http://www.w3.org/2000/svg" xmlns:xlink="http://www.w3.org/1999/xlink" width="500" zoomAndPan="magnify" viewBox="0 0 375 374.999991" height="500" preserveAspectRatio="xMidYMid meet" version="1.0"><defs><g/><clipPath id="aea6ae0b68"><path d="M 110.910156 68.640625 L 264.066406 68.640625 L 264.066406 221.800781 L 110.910156 221.800781 Z M 110.910156 68.640625 " clip-rule="nonzero"/></clipPath><clipPath id="8d0dc503cd"><path d="M 187.496094 221.8125 C 145.296875 221.8125 110.910156 187.425781 110.910156 145.226562 C 110.910156 103.03125 145.296875 68.640625 187.496094 68.640625 C 229.691406 68.640625 264.078125 103.03125 264.078125 145.226562 C 264.078125 165.699219 256.179688 184.910156 241.722656 199.367188 C 227.179688 213.820312 207.964844 221.8125 187.496094 221.8125 Z M 187.496094 206.550781 C 184.890625 206.550781 182.734375 204.394531 182.734375 201.789062 C 182.734375 199.1875 184.890625 197.03125 187.496094 197.03125 C 216.046875 197.03125 239.300781 173.777344 239.300781 145.226562 C 239.300781 132.835938 234.808594 120.894531 226.820312 111.558594 C 225.023438 109.582031 225.292969 106.53125 227.269531 104.824219 C 229.332031 103.03125 232.296875 103.296875 234.09375 105.273438 C 243.609375 116.316406 248.90625 130.503906 248.90625 145.226562 C 248.90625 161.65625 242.53125 177.011719 230.949219 188.59375 C 219.277344 200.175781 203.925781 206.550781 187.496094 206.550781 Z M 172.859375 204.664062 C 172.5 204.664062 172.050781 204.664062 171.601562 204.484375 C 164.871094 202.6875 158.675781 199.816406 153.199219 196.042969 C 150.953125 194.519531 150.414062 191.554688 151.941406 189.402344 C 153.378906 187.246094 156.339844 186.617188 158.585938 188.144531 C 163.253906 191.285156 168.460938 193.710938 174.117188 195.328125 C 176.632812 195.953125 178.15625 198.648438 177.4375 201.164062 C 176.898438 203.316406 175.015625 204.664062 172.859375 204.664062 Z M 145.207031 187.425781 C 143.859375 187.425781 142.511719 186.886719 141.617188 185.808594 C 131.738281 174.675781 126.261719 160.222656 126.261719 145.226562 C 126.261719 128.886719 132.636719 113.445312 144.21875 101.953125 C 155.710938 90.371094 171.152344 83.996094 187.496094 83.996094 C 193.691406 83.996094 199.796875 84.894531 205.632812 86.597656 C 208.144531 87.40625 209.582031 90.101562 208.773438 92.613281 C 208.054688 95.128906 205.363281 96.566406 202.847656 95.757812 C 197.910156 94.320312 192.792969 93.601562 187.496094 93.601562 C 159.035156 93.601562 135.871094 116.765625 135.871094 145.226562 C 135.871094 157.976562 140.449219 170.097656 148.707031 179.523438 C 150.503906 181.5 150.324219 184.550781 148.347656 186.257812 C 147.453125 187.066406 146.285156 187.425781 145.207031 187.425781 Z M 169.089844 165.429688 C 167.921875 165.429688 166.664062 164.980469 165.765625 164.082031 L 149.695312 148.011719 L 149.695312 147.921875 L 149.605469 147.742188 L 149.515625 147.652344 L 149.515625 147.5625 L 149.335938 147.382812 L 149.335938 147.292969 L 149.246094 147.113281 L 149.246094 147.023438 L 149.15625 146.933594 L 149.15625 146.753906 L 149.066406 146.574219 L 149.066406 146.394531 L 148.976562 146.304688 L 148.976562 145.945312 L 148.886719 145.855469 L 148.886719 144.6875 L 148.976562 144.597656 L 148.976562 144.238281 L 149.066406 144.058594 L 149.066406 143.878906 L 149.15625 143.789062 L 149.15625 143.523438 L 149.246094 143.433594 L 149.246094 143.34375 L 149.335938 143.253906 L 149.335938 143.164062 L 149.425781 142.984375 L 149.515625 142.894531 L 149.515625 142.804688 L 149.695312 142.625 L 149.695312 142.535156 L 149.964844 142.265625 L 150.054688 142.085938 L 150.234375 141.90625 L 150.324219 141.90625 L 150.324219 141.816406 L 165.765625 126.460938 C 167.5625 124.578125 170.617188 124.578125 172.5 126.460938 C 174.386719 128.257812 174.386719 131.3125 172.5 133.195312 L 160.46875 145.226562 L 172.5 157.257812 C 174.386719 159.144531 174.386719 162.195312 172.5 164.082031 C 171.601562 164.980469 170.347656 165.429688 169.089844 165.429688 Z M 178.785156 182.757812 C 178.425781 182.757812 177.976562 182.757812 177.617188 182.667969 C 175.015625 181.949219 173.488281 179.34375 174.207031 176.742188 L 191.714844 111.289062 C 192.34375 108.777344 194.945312 107.25 197.550781 107.878906 C 200.152344 108.597656 201.679688 111.199219 200.960938 113.804688 L 183.453125 179.253906 C 182.914062 181.410156 180.941406 182.757812 178.785156 182.757812 Z M 205.988281 165.429688 C 204.734375 165.429688 203.566406 164.980469 202.578125 164.082031 C 200.78125 162.195312 200.78125 159.144531 202.578125 157.257812 L 214.699219 145.226562 L 202.578125 133.195312 C 200.78125 131.3125 200.78125 128.257812 202.578125 126.460938 C 204.464844 124.578125 207.515625 124.578125 209.402344 126.460938 L 224.84375 141.90625 C 226.640625 143.703125 226.640625 146.753906 224.84375 148.640625 L 209.402344 164.082031 C 208.414062 164.980469 207.246094 165.429688 205.988281 165.429688 Z M 205.988281 165.429688 " clip-rule="evenodd"/></clipPath><clipPath id="924867c416"><path d="M 149 151 L 260 151 L 260 218.199219 L 149 218.199219 Z M 149 151 " clip-rule="nonzero"/></clipPath><clipPath id="5dc43bbc3d"><path d="M 66.375 83 L 308.621094 83 L 308.621094 216 L 66.375 216 Z M 66.375 83 " clip-rule="nonzero"/></clipPath></defs><g clip-path="url(#aea6ae0b68)"><g clip-path="url(#8d0dc503cd)"><path fill="#0b178c" d="M 110.910156 68.640625 L 110.910156 221.800781 L 264.066406 221.800781 L 264.066406 68.640625 Z M 110.910156 68.640625 " fill-opacity="1" fill-rule="nonzero"/></g></g><path fill="#0b178c" d="M 135.832031 190.414062 C 125.726562 178.550781 119.574219 163.203125 119.574219 146.414062 C 119.574219 108.960938 150.042969 78.492188 187.496094 78.492188 C 219.671875 78.492188 246.640625 101.011719 253.605469 131.105469 C 254.757812 130.328125 255.894531 129.570312 256.992188 128.8125 C 249.117188 97.738281 220.976562 74.628906 187.496094 74.628906 C 147.90625 74.628906 115.714844 106.839844 115.714844 146.414062 C 115.714844 163.617188 121.808594 179.421875 131.933594 191.796875 C 133.21875 191.363281 134.523438 190.890625 135.832031 190.414062 " fill-opacity="1" fill-rule="nonzero"/><g clip-path="url(#924867c416)"><path fill="#0b178c" d="M 187.496094 214.335938 C 175.195312 214.335938 163.6875 211.007812 153.714844 205.273438 C 152.183594 205.878906 150.6875 206.445312 149.171875 207.011719 C 160.261719 214.054688 173.398438 218.199219 187.496094 218.199219 C 225.292969 218.199219 256.289062 188.808594 259.015625 151.695312 C 257.652344 152.566406 256.308594 153.4375 254.910156 154.304688 C 250.992188 188.050781 222.261719 214.335938 187.496094 214.335938 " fill-opacity="1" fill-rule="nonzero"/></g><g clip-path="url(#5dc43bbc3d)"><path fill="#0b178c" d="M 307.730469 89.316406 C 302.429688 78.679688 275.839844 84 254.492188 90.320312 C 253.226562 90.699219 252.507812 92.023438 252.882812 93.273438 C 253.261719 94.539062 254.570312 95.257812 255.835938 94.878906 C 287.574219 85.457031 301.332031 87.140625 303.492188 91.453125 C 305.722656 95.882812 298.476562 108.261719 270.730469 128.566406 C 251.539062 142.667969 225.914062 157.941406 198.585938 171.605469 C 172.1875 184.8125 146.484375 195.488281 124.285156 202.492188 C 89.027344 213.675781 73.832031 212.199219 71.503906 207.542969 C 69.230469 203 76.800781 190.285156 105.683594 169.390625 C 106.742188 168.632812 106.988281 167.136719 106.210938 166.078125 C 105.4375 165.019531 103.960938 164.773438 102.902344 165.546875 C 83.558594 179.535156 61.679688 198.554688 67.265625 209.664062 C 69.460938 214.074219 75.230469 215.792969 82.859375 215.792969 C 94.820312 215.792969 111.339844 211.574219 125.726562 207.011719 C 148.152344 199.953125 174.078125 189.167969 200.707031 175.863281 C 228.261719 162.085938 254.132812 146.640625 273.550781 132.410156 C 292.15625 118.785156 313.21875 100.238281 307.730469 89.316406 " fill-opacity="1" fill-rule="nonzero"/></g><g fill="#0b178c" fill-opacity="1"><g transform="translate(41.327162, 289.76263)"><g><path d="M 6.65625 -19.3125 L 6.65625 -24.890625 L 34.359375 -38.171875 L 34.359375 -30.265625 L 16.0625 -22.09375 L 34.359375 -13.796875 L 34.359375 -5.890625 Z M 6.65625 -19.3125 "/></g></g></g><g fill="#0b178c" fill-opacity="1"><g transform="translate(79.028324, 289.76263)"><g><path d="M 7.84375 0 L -0.34375 0 L 18.9375 -51 L 27.046875 -51 Z M 7.84375 0 "/></g></g></g><g fill="#0b178c" fill-opacity="1"><g transform="translate(103.311027, 289.76263)"><g><path d="M 29.15625 -30.171875 L 18.9375 -30.171875 L 15.1875 -13.703125 C 14.882812 -12.378906 14.734375 -11.28125 14.734375 -10.40625 C 14.734375 -7.863281 16.164062 -6.59375 19.03125 -6.59375 C 20.300781 -6.59375 22.382812 -7.191406 25.28125 -8.390625 L 25.28125 -0.59375 C 22.78125 0.257812 19.378906 0.6875 15.078125 0.6875 C 12.265625 0.6875 10 -0.1875 8.28125 -1.9375 C 6.570312 -3.695312 5.71875 -5.988281 5.71875 -8.8125 C 5.71875 -9.726562 5.820312 -10.640625 6.03125 -11.546875 L 10.234375 -30.171875 L 5.921875 -30.171875 L 7.421875 -37.140625 L 11.71875 -37.140625 L 13.171875 -44.734375 L 23.09375 -48.34375 L 20.5 -37.140625 L 30.65625 -37.140625 Z M 29.15625 -30.171875 "/></g></g></g><g fill="#0b178c" fill-opacity="1"><g transform="translate(130.506265, 289.76263)"><g><path d="M 34.265625 -13.3125 C 34.097656 -12.457031 34.015625 -11.507812 34.015625 -10.46875 C 34.015625 -5.382812 34.410156 -1.894531 35.203125 0 L 29.78125 0 C 28.164062 0 26.96875 -1.234375 26.1875 -3.703125 C 23.21875 -0.773438 19.53125 0.6875 15.125 0.6875 C 11.09375 0.6875 7.972656 -0.441406 5.765625 -2.703125 C 3.566406 -4.972656 2.46875 -8.128906 2.46875 -12.171875 C 2.46875 -19.222656 4.597656 -25.257812 8.859375 -30.28125 C 13.117188 -35.3125 18.5 -37.828125 25 -37.828125 C 31.257812 -37.828125 35.78125 -37.25 38.5625 -36.09375 Z M 24.234375 -30.75 C 20.347656 -30.75 17.25 -28.894531 14.9375 -25.1875 C 12.632812 -21.476562 11.484375 -17.207031 11.484375 -12.375 C 11.484375 -8.375 13.445312 -6.375 17.375 -6.375 C 19.875 -6.375 22.050781 -7.910156 23.90625 -10.984375 C 25.769531 -14.066406 27.429688 -20.425781 28.890625 -30.0625 C 27.242188 -30.519531 25.691406 -30.75 24.234375 -30.75 Z M 24.234375 -30.75 "/></g></g></g><g fill="#0b178c" fill-opacity="1"><g transform="translate(168.692849, 289.76263)"><g><path d="M 32.140625 -27.953125 C 29.710938 -29.734375 27.265625 -30.625 24.796875 -30.625 C 20.816406 -30.625 17.617188 -29.132812 15.203125 -26.15625 C 12.785156 -23.1875 11.578125 -19.472656 11.578125 -15.015625 C 11.578125 -12.703125 12.257812 -10.722656 13.625 -9.078125 C 14.988281 -7.441406 16.742188 -6.625 18.890625 -6.625 C 21.992188 -6.625 25.640625 -7.941406 29.828125 -10.578125 L 28.78125 -1.53125 C 25.238281 -0.0507812 21.597656 0.6875 17.859375 0.6875 C 13.160156 0.6875 9.441406 -0.609375 6.703125 -3.203125 C 3.960938 -5.804688 2.59375 -9.382812 2.59375 -13.9375 C 2.59375 -20.851562 4.59375 -26.5625 8.59375 -31.0625 C 12.59375 -35.570312 17.832031 -37.828125 24.3125 -37.828125 C 28.007812 -37.828125 31.207031 -37.066406 33.90625 -35.546875 Z M 32.140625 -27.953125 "/></g></g></g><g fill="#0b178c" fill-opacity="1"><g transform="translate(199.771465, 289.76263)"><g><path d="M 32.84375 0 L 23.859375 0 L 27.90625 -21.640625 C 28.238281 -23.367188 28.40625 -24.820312 28.40625 -26 C 28.40625 -29.082031 26.585938 -30.625 22.953125 -30.625 C 19.859375 -30.625 17.070312 -29.316406 14.59375 -26.703125 L 9.640625 0 L 0.9375 0 L 6.171875 -27.84375 C 6.265625 -28.332031 6.3125 -29.003906 6.3125 -29.859375 C 6.3125 -31.910156 5.976562 -34.101562 5.3125 -36.4375 L 13.796875 -38 L 14.59375 -33.84375 C 17.644531 -36.5 21.472656 -37.828125 26.078125 -37.828125 C 33.703125 -37.828125 37.515625 -34.253906 37.515625 -27.109375 C 37.515625 -25.835938 37.351562 -24.335938 37.03125 -22.609375 Z M 32.84375 0 "/></g></g></g><g fill="#0b178c" fill-opacity="1"><g transform="translate(235.773649, 289.76263)"><g><path d="M 11.203125 -49.0625 C 11.203125 -50.613281 11.75 -51.898438 12.84375 -52.921875 C 13.945312 -53.953125 15.285156 -54.46875 16.859375 -54.46875 C 18.398438 -54.46875 19.722656 -53.953125 20.828125 -52.921875 C 21.941406 -51.898438 22.5 -50.613281 22.5 -49.0625 C 22.5 -47.539062 21.941406 -46.257812 20.828125 -45.21875 C 19.722656 -44.175781 18.398438 -43.65625 16.859375 -43.65625 C 15.304688 -43.65625 13.972656 -44.171875 12.859375 -45.203125 C 11.753906 -46.234375 11.203125 -47.519531 11.203125 -49.0625 Z M 13.765625 0 L 4.953125 0 L 10.578125 -30.171875 L 5.828125 -30.171875 L 7.28125 -37.140625 L 20.703125 -37.140625 Z M 13.765625 0 "/></g></g></g><g fill="#0b178c" fill-opacity="1"><g transform="translate(255.063438, 289.76263)"><g><path d="M 26.1875 -18.65625 L 36.96875 0 L 26.390625 0 L 20.28125 -11.546875 L 10.40625 0 L -0.28125 0 L 15.875 -19.390625 L 6.03125 -37.140625 L 16.15625 -37.140625 L 22.015625 -25.875 L 30.96875 -37.140625 L 41.890625 -37.140625 Z M 26.1875 -18.65625 "/></g></g></g><g fill="#0b178c" fill-opacity="1"><g transform="translate(292.036465, 289.76263)"><g><path d="M 9.1875 -5.890625 L 9.1875 -13.796875 L 27.46875 -22.09375 L 9.1875 -30.265625 L 9.1875 -38.171875 L 36.890625 -24.890625 L 36.890625 -19.3125 Z M 9.1875 -5.890625 "/></g></g></g></svg>